<svg width="128" height="128" viewBox="0 0 372 372" fill="none" xmlns="http://www.w3.org/2000/svg">
<path d="M224.271 137.641C255.09 124.729 269.606 89.2789 256.694 58.4605C243.782 27.6421 208.332 13.1259 177.514 26.0376C167.075 30.411 158.507 37.3701 152.241 45.8591C146.586 43.6547 140.102 43.5573 134.061 46.088L119.211 52.2357C106.855 57.4123 101.035 71.6249 106.212 83.9806L162.691 218.788C167.868 231.144 182.08 236.964 194.436 231.787L209.287 225.639C221.642 220.463 227.462 206.25 222.285 193.895L200.693 142.356C208.558 142.385 216.56 140.872 224.271 137.641Z" fill="#CF9FFF"/>
<path d="M117.133 81.0116C113.932 73.3725 117.531 64.5853 125.17 61.3848L136.414 56.6739C144.053 53.4734 152.84 57.0717 156.041 64.7108L212.01 198.3C215.21 205.94 211.612 214.727 203.973 217.927L192.729 222.638C185.09 225.839 176.302 222.24 173.102 214.601L117.133 81.0116Z" fill="#F7ED00"/>
<path fill-rule="evenodd" clip-rule="evenodd" d="M219.391 129.334C245.156 118.539 257.292 88.9014 246.498 63.1358C235.703 37.3702 206.065 25.234 180.299 36.0288C154.534 46.8236 142.397 76.4616 153.192 102.227C163.987 127.993 193.625 140.129 219.391 129.334ZM204.616 93.8206C210.739 91.2551 213.624 84.2113 211.058 78.0878C208.493 71.9644 201.449 69.0801 195.326 71.6456C189.202 74.2111 186.318 81.2548 188.883 87.3783C191.449 93.5018 198.493 96.3861 204.616 93.8206Z" fill="#FF4245"/>
<path d="M183.457 130.566L155.853 64.6795C155.323 63.4149 154.64 62.261 153.835 61.2304C148.009 73.704 147.267 88.4962 153.006 102.194C158.844 116.127 170.191 126.075 183.457 130.566Z" fill="#00EEAA"/>
<path d="M200.654 22.6451C201.384 22.6425 201.974 22.0482 201.972 21.3178C201.969 20.5873 201.375 19.9973 200.644 20C198.853 20.0065 197.055 20.0915 195.255 20.2567C194.528 20.3235 193.992 20.9673 194.059 21.6947C194.126 22.4221 194.77 22.9576 195.497 22.8908C197.219 22.7326 198.94 22.6514 200.654 22.6451Z" fill="#4C0394"/>
<path d="M206.035 20.217C205.307 20.1557 204.667 20.696 204.606 21.4239C204.545 22.1517 205.085 22.7915 205.813 22.8528C207.532 22.9977 209.241 23.2176 210.934 23.5107C211.653 23.6353 212.338 23.1528 212.462 22.4331C212.587 21.7134 212.105 21.0289 211.385 20.9043C209.617 20.5982 207.832 20.3684 206.035 20.217Z" fill="#4C0394"/>
<path d="M190.383 23.5882C191.102 23.4578 191.579 22.7694 191.449 22.0507C191.318 21.332 190.63 20.8551 189.911 20.9855C188.154 21.3044 186.399 21.7019 184.652 22.1799C183.947 22.3726 183.532 23.1 183.725 23.8046C183.918 24.5091 184.645 24.924 185.35 24.7313C187.022 24.2738 188.701 23.8933 190.383 23.5882Z" fill="#4C0394"/>
<path d="M216.654 22.0548C215.948 21.8681 215.224 22.2892 215.037 22.9954C214.851 23.7016 215.272 24.4254 215.978 24.6121C217.644 25.0525 219.289 25.565 220.908 26.1474C221.596 26.3946 222.353 26.0378 222.6 25.3505C222.848 24.6632 222.491 23.9056 221.804 23.6584C220.112 23.0501 218.394 22.5148 216.654 22.0548Z" fill="#4C0394"/>
<path d="M180.431 26.3095C181.117 26.0565 181.467 25.2958 181.214 24.6106C180.961 23.9254 180.2 23.5751 179.515 23.8282C178.675 24.1385 177.838 24.4682 177.004 24.8176C176.149 25.1759 175.306 25.5512 174.475 25.9429C173.815 26.2546 173.532 27.0428 173.843 27.7034C174.155 28.364 174.943 28.6469 175.604 28.3353C176.399 27.96 177.207 27.6005 178.026 27.2573C178.825 26.9226 179.627 26.6067 180.431 26.3095Z" fill="#4C0394"/>
<path d="M226.795 25.7021C226.131 25.3963 225.346 25.6861 225.04 26.3494C224.734 27.0127 225.024 27.7984 225.687 28.1043C227.25 28.8248 228.782 29.6133 230.278 30.4677C230.913 30.8299 231.72 30.6093 232.083 29.975C232.445 29.3407 232.224 28.5329 231.59 28.1707C230.027 27.2782 228.427 26.4547 226.795 25.7021Z" fill="#4C0394"/>
<path d="M170.917 30.8066C171.547 30.4374 171.759 29.6272 171.389 28.9969C171.02 28.3667 170.21 28.155 169.58 28.5241C167.975 29.4637 166.426 30.4684 164.934 31.5331C164.339 31.9574 164.201 32.7833 164.625 33.3779C165.049 33.9725 165.875 34.1107 166.47 33.6864C167.898 32.6675 169.381 31.706 170.917 30.8066Z" fill="#4C0394"/>
<path d="M236.153 31.0463C235.552 30.6303 234.728 30.7798 234.312 31.3803C233.896 31.9807 234.046 32.8046 234.646 33.2206C236.059 34.1989 237.431 35.2405 238.758 36.3432C239.32 36.81 240.154 36.733 240.62 36.1711C241.087 35.6093 241.01 34.7754 240.448 34.3087C239.061 33.1564 237.628 32.0683 236.153 31.0463Z" fill="#4C0394"/>
<path d="M162.301 36.9546C162.855 36.4785 162.918 35.6435 162.442 35.0895C161.966 34.5356 161.131 34.4724 160.577 34.9485C159.17 36.1572 157.826 37.4236 156.545 38.7425C156.036 39.2666 156.049 40.1039 156.573 40.6127C157.097 41.1215 157.934 41.1092 158.443 40.5851C159.668 39.323 160.955 38.1112 162.301 36.9546Z" fill="#4C0394"/>
<path d="M244.443 37.9348C243.924 37.4206 243.087 37.4243 242.573 37.9431C242.058 38.4619 242.062 39.2993 242.581 39.8135C243.799 41.0203 244.968 42.2849 246.084 43.6054C246.556 44.1632 247.391 44.233 247.948 43.7614C248.506 43.2898 248.576 42.4553 248.104 41.8975C246.937 40.5175 245.715 39.1959 244.443 37.9348Z" fill="#4C0394"/>
<path d="M154.927 44.5483C155.387 43.9806 155.3 43.1478 154.732 42.6881C154.164 42.2284 153.331 42.316 152.872 42.8836C152.499 43.3437 152.134 43.8087 151.775 44.2785C151.319 44.1212 150.859 43.9767 150.395 43.8451C149.692 43.646 148.961 44.0542 148.762 44.757C148.563 45.4597 148.971 46.1909 149.674 46.39C150.381 46.5905 151.078 46.8245 151.762 47.0912L152.705 47.4588L153.307 46.6443C153.83 45.9345 154.371 45.2356 154.927 44.5483Z" fill="#4C0394"/>
<path d="M145.569 42.9652C143.949 42.8283 142.306 42.8455 140.662 43.0255C139.935 43.105 139.411 43.758 139.491 44.4841C139.57 45.2102 140.223 45.7344 140.949 45.6549C142.422 45.4937 143.894 45.4783 145.346 45.6009C146.074 45.6624 146.714 45.1222 146.775 44.3944C146.837 43.6665 146.297 43.0266 145.569 42.9652Z" fill="#4C0394"/>
<path d="M136.644 46.553C137.342 46.3359 137.731 45.5945 137.514 44.8971C137.297 44.1997 136.555 43.8103 135.858 44.0275C135.084 44.2683 134.316 44.5478 133.554 44.8668L133.551 44.8679L131.7 45.6342C131.025 45.9136 130.705 46.6872 130.984 47.3621C131.264 48.037 132.037 48.3576 132.712 48.0782L134.568 47.3097L134.574 47.3076C135.259 47.0205 135.95 46.7693 136.644 46.553Z" fill="#4C0394"/>
<path d="M251.402 46.1649C250.981 45.5679 250.156 45.4251 249.559 45.8459C248.962 46.2668 248.819 47.0919 249.24 47.6889C250.225 49.0862 251.155 50.5352 252.027 52.0342C252.394 52.6658 253.203 52.8802 253.835 52.5132C254.466 52.1462 254.681 51.3367 254.314 50.7051C253.404 49.1391 252.432 47.6251 251.402 46.1649Z" fill="#4C0394"/>
<path d="M128.999 49.6152C129.674 49.3358 129.995 48.5622 129.716 47.8873C129.436 47.2124 128.663 46.8918 127.988 47.1711L124.275 48.7081C123.6 48.9875 123.28 49.7611 123.559 50.436C123.838 51.1109 124.612 51.4315 125.287 51.1521L128.999 49.6152Z" fill="#4C0394"/>
<path d="M121.574 52.689C122.249 52.4097 122.57 51.6361 122.29 50.9612C122.011 50.2863 121.237 49.9656 120.562 50.245L118.706 51.0135L118.701 51.0157C117.921 51.3423 117.166 51.7033 116.436 52.0962C115.793 52.4423 115.552 53.2444 115.898 53.8876C116.244 54.5308 117.046 54.7715 117.69 54.4254C118.343 54.0735 119.02 53.7498 119.72 53.4566L119.723 53.4554L121.574 52.689Z" fill="#4C0394"/>
<path d="M113.96 56.9343C114.523 56.4689 114.602 55.6352 114.136 55.0723C113.671 54.5093 112.837 54.4304 112.274 54.8958C110.971 55.9734 109.791 57.1686 108.743 58.4583C108.282 59.0252 108.368 59.8582 108.935 60.3188C109.502 60.7794 110.335 60.6933 110.796 60.1264C111.735 58.9704 112.792 57.8996 113.96 56.9343Z" fill="#4C0394"/>
<path d="M256.819 55.4828C256.508 54.8218 255.72 54.538 255.059 54.8489C254.398 55.1598 254.115 55.9477 254.425 56.6087C254.791 57.3848 255.141 58.1725 255.475 58.9714C255.81 59.7703 256.126 60.5723 256.423 61.3769C256.676 62.0621 257.437 62.4124 258.122 62.1593C258.807 61.9062 259.158 61.1456 258.904 60.4604C258.594 59.6203 258.264 58.7831 257.915 57.9492C257.566 57.1154 257.2 56.2932 256.819 55.4828Z" fill="#4C0394"/>
<path d="M108.316 63.8773C108.657 63.2316 108.41 62.4314 107.764 62.09C107.119 61.7487 106.319 61.9954 105.977 62.6412C105.194 64.1219 104.558 65.6764 104.077 67.2808C103.868 67.9805 104.265 68.7176 104.965 68.9272C105.664 69.1368 106.402 68.7395 106.611 68.0398C107.042 66.6004 107.613 65.2057 108.316 63.8773Z" fill="#4C0394"/>
<path d="M260.553 65.5971C260.36 64.8926 259.633 64.4777 258.928 64.6704C258.224 64.8631 257.809 65.5905 258.001 66.2951C258.459 67.9674 258.839 69.6468 259.145 71.3288C259.275 72.0476 259.963 72.5245 260.682 72.3941C261.401 72.2637 261.878 71.5753 261.747 70.8566C261.428 69.0989 261.031 67.3442 260.553 65.5971Z" fill="#4C0394"/>
<path d="M105.748 72.4528C105.817 71.7257 105.284 71.08 104.557 71.0108C103.83 70.9415 103.184 71.4748 103.115 72.2019C102.957 73.8562 102.96 75.5359 103.133 77.2181C103.208 77.9447 103.858 78.4731 104.584 78.3983C105.311 78.3235 105.839 77.6738 105.765 76.9472C105.61 75.4405 105.607 73.9355 105.748 72.4528Z" fill="#4C0394"/>
<path d="M262.476 76.2005C262.409 75.4731 261.765 74.9376 261.038 75.0044C260.311 75.0712 259.775 75.715 259.842 76.4424C260 78.1644 260.081 79.8849 260.088 81.5993C260.09 82.3297 260.685 82.9197 261.415 82.917C262.145 82.9144 262.735 82.3201 262.733 81.5896C262.726 79.7981 262.641 78.0001 262.476 76.2005Z" fill="#4C0394"/>
<path d="M106.664 81.3517C106.448 80.6538 105.707 80.2629 105.01 80.4786C104.312 80.6943 103.921 81.4348 104.137 82.1327C104.381 82.9247 104.666 83.7117 104.993 84.4914L106.002 86.8987C106.284 87.5724 107.059 87.8897 107.733 87.6075C108.406 87.3252 108.724 86.5503 108.441 85.8766L107.433 83.4693C107.139 82.7686 106.883 82.062 106.664 81.3517Z" fill="#4C0394"/>
<path d="M262.516 86.9802C262.577 86.2524 262.037 85.6126 261.309 85.5513C260.581 85.49 259.941 86.0303 259.88 86.7581C259.735 88.4777 259.515 90.1863 259.222 91.879C259.097 92.5988 259.58 93.2832 260.3 93.4078C261.019 93.5324 261.704 93.05 261.828 92.3302C262.135 90.5619 262.364 88.7769 262.516 86.9802Z" fill="#4C0394"/>
<path d="M110.459 90.6911C110.176 90.0174 109.401 89.7001 108.728 89.9824C108.054 90.2646 107.737 91.0396 108.019 91.7133L110.036 96.5278C110.318 97.2015 111.093 97.5189 111.767 97.2366C112.441 96.9544 112.758 96.1794 112.476 95.5057L110.459 90.6911Z" fill="#4C0394"/>
<path d="M260.678 97.5995C260.865 96.8934 260.443 96.1695 259.737 95.9829C259.031 95.7961 258.307 96.2173 258.121 96.9234C257.68 98.5894 257.168 100.234 256.585 101.854C256.338 102.541 256.695 103.299 257.382 103.546C258.07 103.793 258.827 103.436 259.074 102.749C259.683 101.058 260.218 99.3396 260.678 97.5995Z" fill="#4C0394"/>
<path d="M114.493 100.32C114.21 99.6466 113.436 99.3292 112.762 99.6115C112.088 99.8937 111.771 100.669 112.053 101.342L114.07 106.157C114.352 106.831 115.127 107.148 115.801 106.866C116.475 106.583 116.792 105.809 116.51 105.135L114.493 100.32Z" fill="#4C0394"/>
<path d="M257.031 107.74C257.336 107.077 257.047 106.291 256.383 105.985C255.72 105.679 254.934 105.969 254.628 106.633C253.908 108.195 253.119 109.727 252.265 111.224C251.903 111.858 252.123 112.666 252.758 113.028C253.392 113.39 254.2 113.17 254.562 112.535C255.455 110.972 256.278 109.372 257.031 107.74Z" fill="#4C0394"/>
<path d="M118.527 109.949C118.245 109.276 117.47 108.958 116.796 109.241C116.122 109.523 115.805 110.298 116.087 110.972L118.104 115.786C118.387 116.46 119.162 116.777 119.835 116.495C120.509 116.213 120.826 115.438 120.544 114.764L118.527 109.949Z" fill="#4C0394"/>
<path d="M251.686 117.098C252.102 116.498 251.953 115.674 251.352 115.258C250.752 114.842 249.928 114.991 249.512 115.592C248.534 117.004 247.492 118.376 246.389 119.703C245.923 120.265 246 121.099 246.562 121.566C247.123 122.033 247.957 121.956 248.424 121.394C249.576 120.007 250.664 118.573 251.686 117.098Z" fill="#4C0394"/>
<path d="M122.561 119.579C122.279 118.905 121.504 118.587 120.83 118.87C120.157 119.152 119.839 119.927 120.122 120.601L122.139 125.415C122.421 126.089 123.196 126.406 123.87 126.124C124.543 125.842 124.861 125.067 124.578 124.393L122.561 119.579Z" fill="#4C0394"/>
<path d="M244.798 125.388C245.312 124.87 245.308 124.032 244.79 123.518C244.271 123.004 243.433 123.007 242.919 123.526C241.712 124.744 240.448 125.913 239.127 127.03C238.57 127.501 238.5 128.336 238.971 128.894C239.443 129.452 240.277 129.521 240.835 129.05C242.215 127.883 243.537 126.661 244.798 125.388Z" fill="#4C0394"/>
<path d="M126.595 129.208C126.313 128.534 125.538 128.217 124.865 128.499C124.191 128.781 123.874 129.556 124.156 130.23L126.173 135.044C126.455 135.718 127.23 136.035 127.904 135.753C128.578 135.471 128.895 134.696 128.613 134.022L126.595 129.208Z" fill="#4C0394"/>
<path d="M236.568 132.348C237.165 131.927 237.308 131.102 236.887 130.505C236.466 129.908 235.641 129.765 235.044 130.186C233.647 131.171 232.198 132.101 230.698 132.972C230.067 133.339 229.853 134.149 230.22 134.78C230.587 135.412 231.396 135.626 232.028 135.259C233.594 134.349 235.108 133.377 236.568 132.348Z" fill="#4C0394"/>
<path d="M227.25 137.764C227.911 137.454 228.195 136.666 227.884 136.005C227.573 135.344 226.785 135.06 226.124 135.371C225.348 135.736 224.56 136.086 223.761 136.421C222.846 136.804 221.926 137.163 221.003 137.497C220.317 137.746 219.962 138.505 220.21 139.191C220.459 139.878 221.218 140.233 221.904 139.984C222.868 139.635 223.828 139.261 224.783 138.861C225.617 138.511 226.44 138.146 227.25 137.764Z" fill="#4C0394"/>
<path d="M130.63 138.837C130.347 138.163 129.572 137.846 128.899 138.128C128.225 138.41 127.908 139.185 128.19 139.859L130.207 144.673C130.489 145.347 131.264 145.664 131.938 145.382C132.612 145.1 132.929 144.325 132.647 143.651L130.63 138.837Z" fill="#4C0394"/>
<path d="M215.995 141.798C216.704 141.619 217.132 140.9 216.953 140.192C216.774 139.484 216.054 139.055 215.346 139.234C213.418 139.722 211.483 140.109 209.545 140.396C208.823 140.504 208.324 141.176 208.431 141.899C208.539 142.621 209.211 143.12 209.934 143.013C211.958 142.712 213.981 142.308 215.995 141.798Z" fill="#4C0394"/>
<path d="M203.78 143.612C204.51 143.578 205.074 142.959 205.04 142.229C205.006 141.499 204.387 140.936 203.657 140.97C202.669 141.016 201.683 141.037 200.699 141.033L198.703 141.025L200.554 145.444C200.836 146.117 201.611 146.435 202.285 146.152C202.958 145.87 203.276 145.095 202.993 144.421L202.672 143.653C203.041 143.643 203.411 143.629 203.78 143.612Z" fill="#4C0394"/>
<path d="M134.664 148.466C134.382 147.792 133.607 147.475 132.933 147.757C132.259 148.039 131.942 148.814 132.224 149.488L134.241 154.303C134.524 154.976 135.299 155.294 135.972 155.011C136.646 154.729 136.963 153.954 136.681 153.28L134.664 148.466Z" fill="#4C0394"/>
<path d="M205.153 149.575C204.87 148.902 204.095 148.584 203.422 148.866C202.748 149.149 202.431 149.924 202.713 150.597L204.872 155.751C205.154 156.425 205.929 156.742 206.603 156.46C207.277 156.178 207.594 155.403 207.312 154.729L205.153 149.575Z" fill="#4C0394"/>
<path d="M138.698 158.095C138.416 157.421 137.641 157.104 136.967 157.386C136.294 157.668 135.976 158.443 136.258 159.117L138.276 163.932C138.558 164.605 139.333 164.923 140.007 164.64C140.68 164.358 140.998 163.583 140.715 162.91L138.698 158.095Z" fill="#4C0394"/>
<path d="M209.471 159.883C209.189 159.209 208.414 158.892 207.74 159.174C207.067 159.457 206.749 160.231 207.031 160.905L209.191 166.059C209.473 166.733 210.248 167.05 210.922 166.768C211.595 166.486 211.913 165.711 211.63 165.037L209.471 159.883Z" fill="#4C0394"/>
<path d="M142.732 167.724C142.45 167.05 141.675 166.733 141.001 167.015C140.328 167.298 140.01 168.073 140.293 168.746L142.31 173.561C142.592 174.235 143.367 174.552 144.041 174.27C144.714 173.987 145.032 173.212 144.75 172.539L142.732 167.724Z" fill="#4C0394"/>
<path d="M213.79 170.191C213.507 169.517 212.733 169.2 212.059 169.482C211.385 169.764 211.068 170.539 211.35 171.213L213.509 176.367C213.792 177.041 214.567 177.358 215.24 177.076C215.914 176.793 216.231 176.018 215.949 175.345L213.79 170.191Z" fill="#4C0394"/>
<path d="M146.767 177.353C146.484 176.68 145.709 176.362 145.036 176.644C144.362 176.927 144.045 177.702 144.327 178.375L146.344 183.19C146.626 183.864 147.401 184.181 148.075 183.899C148.749 183.616 149.066 182.842 148.784 182.168L146.767 177.353Z" fill="#4C0394"/>
<path d="M218.108 180.499C217.826 179.825 217.051 179.508 216.377 179.79C215.704 180.072 215.386 180.847 215.669 181.521L217.828 186.675C218.11 187.348 218.885 187.666 219.559 187.383C220.233 187.101 220.55 186.326 220.268 185.652L218.108 180.499Z" fill="#4C0394"/>
<path d="M150.801 186.982C150.519 186.309 149.744 185.991 149.07 186.274C148.396 186.556 148.079 187.331 148.361 188.005L150.378 192.819C150.661 193.493 151.436 193.81 152.109 193.528C152.783 193.246 153.1 192.471 152.818 191.797L150.801 186.982Z" fill="#4C0394"/>
<path d="M222.427 190.806C222.145 190.133 221.37 189.815 220.696 190.098C220.022 190.38 219.705 191.155 219.987 191.828L221.067 194.405C221.36 195.106 221.616 195.813 221.836 196.523C222.052 197.221 222.792 197.612 223.49 197.396C224.188 197.18 224.579 196.44 224.363 195.742C224.118 194.95 223.833 194.163 223.507 193.383L222.427 190.806Z" fill="#4C0394"/>
<path d="M154.835 196.612C154.553 195.938 153.778 195.62 153.104 195.903C152.43 196.185 152.113 196.96 152.395 197.634L154.413 202.448C154.695 203.122 155.47 203.439 156.143 203.157C156.817 202.875 157.134 202.1 156.852 201.426L154.835 196.612Z" fill="#4C0394"/>
<path d="M225.366 200.657C225.291 199.93 224.642 199.402 223.915 199.476C223.189 199.551 222.66 200.201 222.735 200.927C222.89 202.434 222.893 203.939 222.752 205.422C222.682 206.149 223.216 206.795 223.943 206.864C224.67 206.933 225.316 206.4 225.385 205.673C225.542 204.019 225.539 202.339 225.366 200.657Z" fill="#4C0394"/>
<path d="M158.869 206.241C158.587 205.567 157.812 205.25 157.138 205.532C156.465 205.814 156.147 206.589 156.43 207.263L158.447 212.077C158.729 212.751 159.504 213.068 160.178 212.786C160.851 212.504 161.169 211.729 160.886 211.055L158.869 206.241Z" fill="#4C0394"/>
<path d="M224.422 210.594C224.632 209.894 224.235 209.157 223.535 208.947C222.835 208.738 222.098 209.135 221.888 209.835C221.457 211.274 220.886 212.669 220.184 213.997C219.843 214.643 220.089 215.443 220.735 215.785C221.381 216.126 222.181 215.879 222.523 215.234C223.305 213.753 223.942 212.198 224.422 210.594Z" fill="#4C0394"/>
<path d="M162.904 215.87C162.621 215.196 161.846 214.879 161.173 215.161C160.499 215.443 160.182 216.218 160.464 216.892L161.472 219.299C161.799 220.079 162.16 220.834 162.553 221.564C162.899 222.207 163.701 222.448 164.344 222.102C164.988 221.756 165.228 220.954 164.882 220.31C164.53 219.656 164.206 218.978 163.912 218.277L162.904 215.87Z" fill="#4C0394"/>
<path d="M219.757 219.416C220.218 218.849 220.131 218.017 219.565 217.556C218.998 217.095 218.165 217.181 217.704 217.748C216.765 218.904 215.707 219.975 214.54 220.94C213.977 221.406 213.898 222.24 214.364 222.802C214.829 223.365 215.663 223.444 216.226 222.979C217.529 221.901 218.709 220.706 219.757 219.416Z" fill="#4C0394"/>
<path d="M212.064 225.779C212.707 225.432 212.948 224.63 212.602 223.987C212.255 223.344 211.453 223.103 210.81 223.449C210.157 223.801 209.48 224.125 208.78 224.418L208.777 224.419L206.926 225.186C206.251 225.465 205.93 226.239 206.209 226.914C206.489 227.588 207.262 227.909 207.937 227.63L209.794 226.861L209.799 226.859C210.578 226.532 211.334 226.171 212.064 225.779Z" fill="#4C0394"/>
<path d="M167.391 224.04C166.926 223.477 166.092 223.398 165.529 223.864C164.966 224.329 164.887 225.163 165.353 225.726C166.43 227.029 167.625 228.209 168.915 229.257C169.482 229.718 170.315 229.632 170.776 229.065C171.236 228.498 171.15 227.665 170.583 227.204C169.427 226.265 168.356 225.208 167.391 224.04Z" fill="#4C0394"/>
<path d="M204.225 229.167C204.9 228.887 205.22 228.114 204.941 227.439C204.661 226.764 203.888 226.443 203.213 226.723L199.5 228.26C198.825 228.539 198.505 229.313 198.784 229.987C199.064 230.662 199.837 230.983 200.512 230.704L204.225 229.167Z" fill="#4C0394"/>
<path d="M174.334 229.684C173.688 229.343 172.888 229.59 172.547 230.236C172.205 230.881 172.452 231.682 173.098 232.023C174.579 232.806 176.133 233.442 177.738 233.923C178.437 234.132 179.174 233.735 179.384 233.035C179.594 232.336 179.196 231.598 178.497 231.389C177.057 230.958 175.663 230.387 174.334 229.684Z" fill="#4C0394"/>
<path d="M196.799 232.241C197.474 231.961 197.795 231.188 197.515 230.513C197.236 229.838 196.462 229.517 195.788 229.797L193.931 230.565L193.926 230.567C193.225 230.861 192.519 231.117 191.808 231.336C191.111 231.552 190.72 232.293 190.935 232.99C191.151 233.688 191.892 234.079 192.589 233.863C193.38 233.619 194.166 233.334 194.944 233.008L194.948 233.007L196.799 232.241Z" fill="#4C0394"/>
<path d="M187.675 234.867C188.401 234.792 188.93 234.142 188.855 233.416C188.78 232.689 188.131 232.161 187.404 232.235C185.897 232.39 184.392 232.393 182.91 232.252C182.182 232.183 181.537 232.716 181.468 233.443C181.398 234.17 181.932 234.816 182.659 234.885C184.313 235.043 185.993 235.04 187.675 234.867Z" fill="#4C0394"/>
<path fill-rule="evenodd" clip-rule="evenodd" d="M206.161 97.5096C214.322 94.0905 218.166 84.703 214.747 76.5421C211.328 68.3812 201.94 64.5372 193.78 67.9563C185.619 71.3754 181.775 80.7629 185.194 88.9238C188.613 97.0848 198 100.929 206.161 97.5096ZM204.616 93.8205C210.739 91.255 213.623 84.2112 211.058 78.0877C208.492 71.9643 201.449 69.08 195.325 71.6454C189.202 74.2109 186.317 81.2547 188.883 87.3782C191.448 93.5017 198.492 96.386 204.616 93.8205Z" fill="#4C0394"/>
<path fill-rule="evenodd" clip-rule="evenodd" d="M154.021 61.2628C149.961 56.0674 142.787 54.0039 136.412 56.6746L125.168 61.3855C117.529 64.586 113.931 73.3732 117.131 81.0123L173.1 214.602C176.301 222.241 185.088 225.839 192.727 222.639L203.971 217.928C211.61 214.728 215.208 205.94 212.008 198.301L183.643 130.599C194.909 134.413 207.558 134.291 219.39 129.334C245.156 118.539 257.292 88.9013 246.497 63.1357C235.702 37.3701 206.064 25.2339 180.299 36.0287C168.231 41.0845 159.153 50.2738 154.021 61.2628ZM242.808 64.6813C252.749 88.4094 241.573 115.704 217.845 125.645C205.734 130.719 192.695 130.292 181.508 125.503L156.461 65.7186C160.893 54.3856 169.734 44.7916 181.844 39.7179C205.573 29.7767 232.867 40.9532 242.808 64.6813ZM156.881 100.681C160.852 110.159 167.591 117.635 175.766 122.561L154.53 71.8742C152.309 81.1568 152.91 91.2036 156.881 100.681ZM151.969 65.7875C151.993 65.7198 152.017 65.6522 152.042 65.5846C149.477 60.4479 143.33 58.113 137.958 60.3638L126.714 65.0746C121.112 67.4215 118.474 73.8651 120.82 79.4667L176.789 213.056C179.136 218.658 185.58 221.297 191.182 218.95L202.426 214.239C208.027 211.892 210.666 205.448 208.319 199.847L178.458 128.573C178.386 128.54 178.315 128.507 178.243 128.473C167.253 123.341 158.062 114.263 153.006 102.194C147.951 90.1302 147.924 77.2175 151.969 65.7875Z" fill="#4C0394"/>
<path fill-rule="evenodd" clip-rule="evenodd" d="M140.743 288.648C141.109 289.851 140.9 291.211 140.168 292.205C139.435 293.251 138.233 293.878 136.977 293.878H136.925C135.199 293.878 133.682 292.78 133.159 291.159L132.584 289.38H119.98L119.404 291.159C118.881 292.78 117.365 293.878 115.639 293.878H115.586C114.331 293.878 113.128 293.251 112.396 292.205C111.664 291.211 111.455 289.851 111.821 288.648L121.235 260.667C121.758 259.046 123.275 258 124.948 258H127.668C129.341 258 130.858 259.098 131.381 260.667L140.743 288.648ZM122.647 281.431H129.917L126.308 270.604L122.647 281.431Z" fill="black"/>
<path d="M210.246 258C211.292 258 212.286 258.418 213.071 259.151C213.803 259.883 214.221 260.877 214.221 261.923V289.903C214.221 292.1 212.443 293.878 210.246 293.878H210.194C207.997 293.878 206.219 292.1 206.219 289.903V279.809L201.878 291.315C201.303 292.832 199.839 293.878 198.165 293.878H195.393C193.772 293.878 192.255 292.832 191.68 291.315L187.339 279.809V289.903C187.339 292.1 185.56 293.878 183.364 293.878H183.312C181.115 293.878 179.389 292.1 179.389 289.903V261.923C179.389 259.778 181.115 258 183.312 258H184.881C186.502 258 187.966 258.994 188.542 260.563L196.805 282.267L205.016 260.563C205.592 258.994 207.056 258 208.73 258H210.246Z" fill="black"/>
<path fill-rule="evenodd" clip-rule="evenodd" d="M247.935 292.205C248.668 291.211 248.877 289.851 248.511 288.648L239.149 260.667C238.626 259.098 237.109 258 235.436 258H232.716C231.042 258 229.526 259.046 229.003 260.667L219.589 288.648C219.222 289.851 219.432 291.211 220.164 292.205C220.896 293.251 222.099 293.878 223.354 293.878H223.406C225.132 293.878 226.649 292.78 227.172 291.159L227.747 289.38H240.352L240.927 291.159C241.45 292.78 242.967 293.878 244.693 293.878H244.745C246 293.878 247.203 293.251 247.935 292.205ZM237.685 281.431H230.415L234.076 270.604L237.685 281.431Z" fill="black"/>
<path d="M321.495 288.073C321.6 286.87 321.129 285.667 320.188 284.83L320.136 284.778C318.88 283.627 316.945 283.418 315.481 284.359C311.349 286.87 305.962 286.033 302.824 282.372C299.634 278.659 299.581 273.272 302.719 269.558C305.805 265.845 311.192 264.904 315.324 267.362C316.841 268.303 318.776 268.146 320.083 266.943L320.136 266.891C321.077 266.054 321.548 264.851 321.443 263.648C321.339 262.393 320.659 261.295 319.613 260.667C312.081 256.065 302.353 257.634 296.705 264.328C291.004 271.023 291.004 280.855 296.757 287.55C302.458 294.192 312.186 295.709 319.665 291.106C320.711 290.426 321.391 289.328 321.495 288.073Z" fill="black"/>
<path d="M283.214 293.878H283.266C285.463 293.878 287.241 292.1 287.241 289.903V261.975C287.241 259.831 285.463 258.052 283.266 258.052H283.214C281.017 258.052 279.291 259.831 279.291 261.975V289.903C279.291 292.1 281.017 293.878 283.214 293.878Z" fill="black"/>
<path d="M270.073 258.052C272.27 258.052 273.995 259.831 273.995 261.975V262.027C273.995 264.224 272.27 266.002 270.073 266.002H264.581V294.401C264.581 296.598 262.803 298.324 260.606 298.324H260.554C258.358 298.324 256.579 296.598 256.579 294.401V266.002H251.088C248.891 266.002 247.165 264.224 247.165 262.027V261.975C247.165 259.831 248.891 258.052 251.088 258.052H270.073Z" fill="black"/>
<path d="M173.017 273.063C172.284 272.33 171.343 271.912 170.297 271.912H163.759C161.615 271.912 159.941 273.638 159.941 275.73V276.096C159.941 278.188 161.615 279.914 163.759 279.914H166.165V283.784C164.492 285.092 162.347 285.824 160.203 285.824H159.523C154.241 285.824 149.952 281.535 149.952 276.253V275.573C149.952 270.291 154.241 266.002 159.523 266.002H160.203C161.929 266.002 163.602 266.473 165.067 267.362C166.531 268.251 168.414 268.042 169.669 266.943L169.931 266.682C170.82 265.897 171.291 264.694 171.186 263.544C171.081 262.341 170.401 261.295 169.408 260.615C166.636 258.941 163.446 258.052 160.203 258.052H159.523C149.847 258.052 142.002 265.897 142.002 275.573V276.253C142.002 285.929 149.847 293.774 159.523 293.774H160.203C165.067 293.774 169.722 291.786 173.069 288.177C173.749 287.445 174.115 286.504 174.115 285.51V275.73C174.115 274.736 173.696 273.742 173.017 273.063Z" fill="black"/>
<path fill-rule="evenodd" clip-rule="evenodd" d="M108.222 292.048L101.475 283.104C106.183 280.908 109.164 276.148 109.059 270.971C108.902 263.753 102.835 258.052 95.6178 258.052H86.8313C84.6347 258.052 82.9087 259.831 82.9087 261.975V289.903C82.9087 292.1 84.6347 293.878 86.8313 293.878H86.8836C89.0802 293.878 90.8584 292.1 90.8584 289.903V284.359H92.4275L101.842 296.807C102.574 297.801 103.724 298.376 104.98 298.376H105.084C106.549 298.376 107.908 297.487 108.588 296.179C109.268 294.82 109.111 293.251 108.222 292.048ZM101.109 271.18C101.109 274.056 98.7558 276.358 95.9316 276.358H90.8584V266.002H95.9316C98.7558 266.002 101.109 268.303 101.109 271.18Z" fill="black"/>
<path fill-rule="evenodd" clip-rule="evenodd" d="M77.6991 270.761C77.8037 274.318 76.4439 277.77 73.9858 280.332C71.5277 282.895 68.0758 284.307 64.5717 284.359H59.4985V294.401C59.4985 296.598 57.7203 298.324 55.5237 298.324H55.4714C53.2747 298.324 51.5488 296.598 51.5488 294.401V261.975C51.5488 259.831 53.2747 258.052 55.4714 258.052H64.2579C71.423 258.052 77.4899 263.648 77.6991 270.761ZM64.5194 276.358C67.3959 276.358 69.7494 274.056 69.7494 271.18C69.7494 268.303 67.3959 266.002 64.5194 266.002H59.4985V276.358H64.5194Z" fill="black"/>
<path d="M152.4 320.652C152.4 319.124 151.161 317.884 149.632 317.884H144.012C142.483 317.884 141.243 319.124 141.243 320.652C141.243 322.181 142.483 323.421 144.012 323.421H146.863V327.347C145.375 328.628 143.475 329.289 141.491 329.289H140.913C136.284 329.289 132.565 325.57 132.565 320.942V320.363C132.565 315.735 136.284 312.016 140.913 312.016H141.491C143.103 312.016 144.673 312.47 146.037 313.338C147.111 314.041 148.516 313.958 149.466 313.09C150.086 312.553 150.417 311.727 150.334 310.9C150.293 310.032 149.838 309.289 149.136 308.793C146.863 307.305 144.218 306.52 141.491 306.52H140.913C133.268 306.52 127.069 312.718 127.069 320.363V320.942C127.069 328.587 133.268 334.785 140.913 334.785H141.491C145.334 334.785 149.012 333.215 151.657 330.364C152.111 329.868 152.4 329.206 152.4 328.504V320.652Z" fill="black"/>
<path fill-rule="evenodd" clip-rule="evenodd" d="M126.062 331.19C126.351 332.016 126.186 332.967 125.69 333.669C125.152 334.372 124.326 334.826 123.458 334.826C122.26 334.826 121.227 334.041 120.813 332.926L120.276 331.273H109.532L108.954 332.926C108.458 334.372 106.929 335.116 105.482 334.661C104.036 334.165 103.292 332.636 103.747 331.19L111.392 308.338C111.764 307.222 112.838 306.479 113.995 306.479H115.813C117.012 306.479 118.086 307.222 118.458 308.338L126.062 331.19ZM111.35 325.777H118.458L114.904 315.198L111.35 325.777Z" fill="black"/>
<path fill-rule="evenodd" clip-rule="evenodd" d="M96.8494 330.405L93.4195 325.859C97.1387 324.206 99.4941 320.57 99.4528 316.52C99.4115 310.941 94.7419 306.479 89.1219 306.479H82.0969C80.5679 306.479 79.3696 307.718 79.3696 309.247V332.058C79.3696 333.587 80.5679 334.826 82.0969 334.826C83.6259 334.826 84.8656 333.587 84.8656 332.058V326.727H87.1797L92.4691 333.711C92.965 334.413 93.7915 334.826 94.6592 334.826C95.6923 334.826 96.6428 334.207 97.1387 333.297C97.5932 332.347 97.4692 331.231 96.8494 330.405ZM93.9567 316.603C93.9567 319.165 91.8906 321.19 89.3698 321.19H84.8656V312.016H89.3698C91.8906 312.016 93.9567 314.082 93.9567 316.603Z" fill="black"/>
<path fill-rule="evenodd" clip-rule="evenodd" d="M60.7937 306.479C68.5212 306.479 75.0503 312.594 75.2156 320.322C75.2982 324.124 73.8519 327.801 71.2072 330.529C68.5212 333.256 64.8847 334.785 61.0829 334.826H53.7687C52.2397 334.826 51 333.545 51 332.016V309.289C51 307.76 52.2397 306.479 53.7687 306.479H60.7937ZM56.496 329.289H61.0829C65.8351 329.289 69.7195 325.446 69.7195 320.652C69.7195 315.859 65.8351 312.016 61.0829 312.016H56.496V329.289Z" fill="black"/>
<path fill-rule="evenodd" clip-rule="evenodd" d="M319.141 323.097C321.042 321.154 322.075 318.51 321.992 315.782C321.827 310.286 317.199 305.989 311.702 305.989H304.636C303.107 305.989 301.909 307.187 301.909 308.716V335.08C301.909 336.568 303.107 337.808 304.636 337.808C306.165 337.808 307.405 336.568 307.405 335.08V326.196H311.909C314.636 326.196 317.24 325.08 319.141 323.097ZM316.496 316.072C316.496 318.634 314.43 320.658 311.909 320.658H307.405V311.485H311.909C314.43 311.485 316.496 313.551 316.496 316.072Z" fill="black"/>
<path fill-rule="evenodd" clip-rule="evenodd" d="M283.636 305.947C291.405 305.989 297.769 312.311 297.769 320.121C297.769 327.931 291.447 334.254 283.636 334.254C275.826 334.254 269.504 327.931 269.504 320.121C269.504 312.311 275.826 305.947 283.636 305.947ZM283.636 328.717V328.758C288.389 328.717 292.232 324.873 292.273 320.121C292.273 315.328 288.389 311.485 283.636 311.485C278.843 311.485 275 315.328 275 320.121C275 324.873 278.843 328.717 283.636 328.717Z" fill="black"/>
<path fill-rule="evenodd" clip-rule="evenodd" d="M262.73 329.874L259.3 325.328C263.02 323.675 265.375 320.039 265.334 315.989C265.292 310.41 260.623 305.947 255.003 305.947H247.978C246.449 305.947 245.25 307.187 245.25 308.716V331.527C245.25 333.055 246.449 334.295 247.978 334.295C249.507 334.295 250.746 333.055 250.746 331.527V326.196H253.061L258.35 333.179C258.846 333.882 259.672 334.295 260.54 334.295C261.573 334.295 262.524 333.675 263.02 332.766C263.474 331.816 263.35 330.7 262.73 329.874ZM259.838 316.072C259.838 318.634 257.771 320.658 255.251 320.658H250.746V311.485H255.251C257.771 311.485 259.838 313.551 259.838 316.072Z" fill="black"/>
<path fill-rule="evenodd" clip-rule="evenodd" d="M226.675 305.947C234.402 305.947 240.931 312.063 241.096 319.791C241.179 323.592 239.733 327.27 237.088 329.998C234.402 332.725 230.766 334.254 226.964 334.295H219.65C218.121 334.295 216.881 333.014 216.881 331.485V308.757C216.881 307.228 218.121 305.947 219.65 305.947H226.675ZM222.377 328.758H226.964C231.716 328.758 235.6 324.915 235.6 320.121C235.6 315.328 231.716 311.485 226.964 311.485H222.377V328.758Z" fill="black"/>
<path fill-rule="evenodd" clip-rule="evenodd" d="M199.687 314.021C199.687 312.791 198.692 311.796 197.462 311.796H183.933C181.766 311.796 180.009 310.214 179.775 308.106C179.482 305.998 180.829 304.065 182.879 303.538C184.929 303.069 187.037 304.124 187.798 306.115C188.15 306.993 188.97 307.579 189.907 307.579C190.668 307.579 191.312 307.228 191.722 306.642C192.132 306.056 192.249 305.295 192.015 304.651C190.844 301.371 187.798 299.145 184.284 298.97C180.829 298.794 177.608 300.785 176.085 303.889C174.621 307.052 175.148 310.8 177.491 313.377C172.337 316.13 169.526 321.81 170.404 327.55C171.341 333.348 175.851 337.858 181.59 338.853C187.33 339.849 193.069 337.096 195.881 332.001C198.692 326.906 197.93 320.522 193.948 316.247H197.462C198.047 316.247 198.633 316.012 199.043 315.602C199.453 315.193 199.687 314.607 199.687 314.021ZM193.069 325.442C193.069 330.478 188.97 334.578 183.933 334.578C178.838 334.578 174.738 330.478 174.738 325.442C174.738 320.346 178.838 316.247 183.933 316.247C188.97 316.247 193.069 320.346 193.069 325.442Z" fill="black"/>
</svg>
